STARTFONT 2.1
FONT -FontForge-Everyday_Ample_Blocky_Bold-Book-R-Normal--9-90-75-75-P-72-ISO10646-1
SIZE 9 75 75
FONTBOUNDINGBOX 11 15 0 -2
COMMENT "Generated by fontforge, http://fontforge.sourceforge.net"
STARTPROPERTIES 38
FOUNDRY "FontForge"
FAMILY_NAME "Everyday_Ample_Blocky_Bold"
WEIGHT_NAME "Book"
SLANT "R"
SETWIDTH_NAME "Normal"
ADD_STYLE_NAME ""
PIXEL_SIZE 9
POINT_SIZE 90
RESOLUTION_X 75
RESOLUTION_Y 75
SPACING "P"
AVERAGE_WIDTH 72
CHARSET_REGISTRY "ISO10646"
CHARSET_ENCODING "1"
FONTNAME_REGISTRY ""
CHARSET_COLLECTIONS "ISO10646-1"
FONT_NAME "Everyday_Ample_Blocky_Bold"
FACE_NAME "Everyday_Ample_Blocky_Bold Regular"
FONT_VERSION "1.0"
FONT_ASCENT 7
FONT_DESCENT 2
UNDERLINE_POSITION 1
UNDERLINE_THICKNESS 1
X_HEIGHT 6
CAP_HEIGHT 8
RAW_ASCENT 799
RAW_DESCENT 200
NORM_SPACE 7
RELATIVE_WEIGHT 40
RELATIVE_SETWIDTH 50
SUPERSCRIPT_X 0
SUPERSCRIPT_Y 4
SUPERSCRIPT_SIZE 4
SUBSCRIPT_X 0
SUBSCRIPT_Y -1
SUBSCRIPT_SIZE 4
AVG_LOWERCASE_WIDTH 69
AVG_UPPERCASE_WIDTH 82
ENDPROPERTIES
CHARS 165
STARTCHAR uni000D
ENCODING 13
SWIDTH 111 0
DWIDTH 1 0
BBX 1 1 0 0
BITMAP
00
ENDCHAR
STARTCHAR space
ENCODING 32
SWIDTH 777 0
DWIDTH 7 0
BBX 1 1 0 0
BITMAP
00
ENDCHAR
STARTCHAR exclam
ENCODING 33
SWIDTH 333 0
DWIDTH 3 0
BBX 2 9 0 0
BITMAP
C0
C0
C0
C0
C0
C0
00
C0
C0
ENDCHAR
STARTCHAR quotedbl
ENCODING 34
SWIDTH 444 0
DWIDTH 4 0
BBX 3 2 0 7
BITMAP
A0
A0
ENDCHAR
STARTCHAR numbersign
ENCODING 35
SWIDTH 888 0
DWIDTH 8 0
BBX 7 7 0 0
BITMAP
64
FE
64
64
64
FE
64
ENDCHAR
STARTCHAR dollar
ENCODING 36
SWIDTH 888 0
DWIDTH 8 0
BBX 7 11 0 -1
BITMAP
10
FE
D2
D0
D0
FE
16
16
96
FE
10
ENDCHAR
STARTCHAR percent
ENCODING 37
SWIDTH 1111 0
DWIDTH 10 0
BBX 9 9 0 0
BITMAP
E180
A380
E700
0E00
1C00
3800
7380
E280
C380
ENDCHAR
STARTCHAR ampersand
ENCODING 38
SWIDTH 1000 0
DWIDTH 9 0
BBX 8 9 0 0
BITMAP
F8
C8
C8
70
C9
C5
C2
C2
FC
ENDCHAR
STARTCHAR quotesingle
ENCODING 39
SWIDTH 222 0
DWIDTH 2 0
BBX 1 2 0 7
BITMAP
80
80
ENDCHAR
STARTCHAR parenleft
ENCODING 40
SWIDTH 666 0
DWIDTH 6 0
BBX 5 13 0 -2
BITMAP
78
C0
C0
C0
C0
C0
C0
C0
C0
C0
C0
60
38
ENDCHAR
STARTCHAR parenright
ENCODING 41
SWIDTH 666 0
DWIDTH 6 0
BBX 5 13 0 -2
BITMAP
E0
30
18
18
18
18
18
18
18
18
18
18
F0
ENDCHAR
STARTCHAR asterisk
ENCODING 42
SWIDTH 1000 0
DWIDTH 9 0
BBX 8 7 0 1
BITMAP
18
DB
7E
3C
7E
DB
18
ENDCHAR
STARTCHAR plus
ENCODING 43
SWIDTH 1000 0
DWIDTH 9 0
BBX 8 7 0 1
BITMAP
18
18
18
FF
18
18
18
ENDCHAR
STARTCHAR comma
ENCODING 44
SWIDTH 444 0
DWIDTH 4 0
BBX 3 3 0 -1
BITMAP
60
60
E0
ENDCHAR
STARTCHAR hyphen
ENCODING 45
SWIDTH 777 0
DWIDTH 7 0
BBX 6 1 0 4
BITMAP
FC
ENDCHAR
STARTCHAR period
ENCODING 46
SWIDTH 333 0
DWIDTH 3 0
BBX 2 2 0 0
BITMAP
C0
C0
ENDCHAR
STARTCHAR slash
ENCODING 47
SWIDTH 555 0
DWIDTH 5 0
BBX 4 9 0 0
BITMAP
30
30
30
60
60
60
C0
C0
C0
ENDCHAR
STARTCHAR zero
ENCODING 48
SWIDTH 888 0
DWIDTH 8 0
BBX 7 9 0 0
BITMAP
FE
C2
C2
C2
DA
C2
C2
C2
FE
ENDCHAR
STARTCHAR one
ENCODING 49
SWIDTH 777 0
DWIDTH 7 0
BBX 6 9 0 0
BITMAP
30
F0
30
30
30
30
30
30
FC
ENDCHAR
STARTCHAR two
ENCODING 50
SWIDTH 888 0
DWIDTH 8 0
BBX 7 9 0 0
BITMAP
FC
86
06
06
FE
C0
C0
C2
FE
ENDCHAR
STARTCHAR three
ENCODING 51
SWIDTH 888 0
DWIDTH 8 0
BBX 7 9 0 0
BITMAP
FE
86
06
06
7E
06
06
86
FE
ENDCHAR
STARTCHAR four
ENCODING 52
SWIDTH 888 0
DWIDTH 8 0
BBX 7 9 0 0
BITMAP
C6
C6
C6
C6
FE
06
06
06
06
ENDCHAR
STARTCHAR five
ENCODING 53
SWIDTH 888 0
DWIDTH 8 0
BBX 7 9 0 0
BITMAP
FE
C2
C0
C0
FE
06
06
86
FC
ENDCHAR
STARTCHAR six
ENCODING 54
SWIDTH 888 0
DWIDTH 8 0
BBX 7 9 0 0
BITMAP
FE
C2
C0
FE
C2
C2
C2
C2
FE
ENDCHAR
STARTCHAR seven
ENCODING 55
SWIDTH 888 0
DWIDTH 8 0
BBX 7 9 0 0
BITMAP
FE
86
06
0C
0C
18
18
30
30
ENDCHAR
STARTCHAR eight
ENCODING 56
SWIDTH 888 0
DWIDTH 8 0
BBX 7 9 0 0
BITMAP
FE
C2
C2
C2
FE
C2
C2
C2
FE
ENDCHAR
STARTCHAR nine
ENCODING 57
SWIDTH 888 0
DWIDTH 8 0
BBX 7 9 0 0
BITMAP
FE
86
86
86
86
FE
06
86
FE
ENDCHAR
STARTCHAR colon
ENCODING 58
SWIDTH 333 0
DWIDTH 3 0
BBX 2 7 0 0
BITMAP
C0
C0
00
00
00
C0
C0
ENDCHAR
STARTCHAR semicolon
ENCODING 59
SWIDTH 444 0
DWIDTH 4 0
BBX 3 8 0 -1
BITMAP
60
60
00
00
00
60
60
E0
ENDCHAR
STARTCHAR less
ENCODING 60
SWIDTH 888 0
DWIDTH 8 0
BBX 7 7 0 1
BITMAP
06
0E
1C
38
70
E0
FE
ENDCHAR
STARTCHAR equal
ENCODING 61
SWIDTH 777 0
DWIDTH 7 0
BBX 6 5 0 2
BITMAP
FC
00
00
00
FC
ENDCHAR
STARTCHAR greater
ENCODING 62
SWIDTH 888 0
DWIDTH 8 0
BBX 7 7 0 1
BITMAP
FE
0E
1C
38
70
E0
C0
ENDCHAR
STARTCHAR question
ENCODING 63
SWIDTH 777 0
DWIDTH 7 0
BBX 6 9 0 0
BITMAP
FC
8C
0C
0C
3C
30
00
30
30
ENDCHAR
STARTCHAR at
ENCODING 64
SWIDTH 1111 0
DWIDTH 10 0
BBX 9 9 0 0
BITMAP
FF80
C080
DE80
D280
D280
D280
DF80
C000
FE00
ENDCHAR
STARTCHAR A
ENCODING 65
SWIDTH 888 0
DWIDTH 8 0
BBX 7 9 0 0
BITMAP
3E
62
C2
C2
C2
FE
C2
C2
C2
ENDCHAR
STARTCHAR B
ENCODING 66
SWIDTH 1000 0
DWIDTH 9 0
BBX 8 9 0 0
BITMAP
FC
C2
C2
C2
FE
C1
C1
C1
FF
ENDCHAR
STARTCHAR C
ENCODING 67
SWIDTH 1000 0
DWIDTH 9 0
BBX 8 9 0 0
BITMAP
7E
C2
C0
C0
C0
C0
C0
C1
FF
ENDCHAR
STARTCHAR D
ENCODING 68
SWIDTH 888 0
DWIDTH 8 0
BBX 7 9 0 0
BITMAP
F8
C4
C2
C2
C2
C2
C2
C2
FC
ENDCHAR
STARTCHAR E
ENCODING 69
SWIDTH 888 0
DWIDTH 8 0
BBX 7 9 0 0
BITMAP
FE
C0
C0
C0
F8
C0
C0
C0
FE
ENDCHAR
STARTCHAR F
ENCODING 70
SWIDTH 888 0
DWIDTH 8 0
BBX 7 9 0 0
BITMAP
FE
C0
C0
C0
F8
C0
C0
C0
C0
ENDCHAR
STARTCHAR G
ENCODING 71
SWIDTH 1000 0
DWIDTH 9 0
BBX 8 9 0 0
BITMAP
7E
C2
C0
C0
CF
C1
C1
C1
FE
ENDCHAR
STARTCHAR H
ENCODING 72
SWIDTH 888 0
DWIDTH 8 0
BBX 7 9 0 0
BITMAP
C2
C2
C2
C2
FE
C2
C2
C2
C2
ENDCHAR
STARTCHAR I
ENCODING 73
SWIDTH 555 0
DWIDTH 5 0
BBX 4 9 0 0
BITMAP
F0
60
60
60
60
60
60
60
F0
ENDCHAR
STARTCHAR J
ENCODING 74
SWIDTH 888 0
DWIDTH 8 0
BBX 7 9 0 0
BITMAP
3E
06
06
06
06
06
06
86
FC
ENDCHAR
STARTCHAR K
ENCODING 75
SWIDTH 888 0
DWIDTH 8 0
BBX 7 9 0 0
BITMAP
C2
C2
C2
C4
F8
C4
C2
C2
C2
ENDCHAR
STARTCHAR L
ENCODING 76
SWIDTH 888 0
DWIDTH 8 0
BBX 7 9 0 0
BITMAP
C0
C0
C0
C0
C0
C0
C0
C0
FE
ENDCHAR
STARTCHAR M
ENCODING 77
SWIDTH 1222 0
DWIDTH 11 0
BBX 10 9 0 0
BITMAP
7B80
C440
C440
C440
C440
C440
C440
C440
C040
ENDCHAR
STARTCHAR N
ENCODING 78
SWIDTH 888 0
DWIDTH 8 0
BBX 7 9 0 0
BITMAP
FC
C2
C2
C2
C2
C2
C2
C2
C2
ENDCHAR
STARTCHAR O
ENCODING 79
SWIDTH 1000 0
DWIDTH 9 0
BBX 8 9 0 0
BITMAP
7F
C1
C1
C1
C1
C1
C1
C1
FE
ENDCHAR
STARTCHAR P
ENCODING 80
SWIDTH 888 0
DWIDTH 8 0
BBX 7 9 0 0
BITMAP
FC
C2
C2
C2
C2
FC
C0
C0
C0
ENDCHAR
STARTCHAR Q
ENCODING 81
SWIDTH 1000 0
DWIDTH 9 0
BBX 8 9 0 0
BITMAP
7F
C1
C1
C1
C1
C1
C5
C2
FD
ENDCHAR
STARTCHAR R
ENCODING 82
SWIDTH 888 0
DWIDTH 8 0
BBX 7 9 0 0
BITMAP
FC
C2
C2
C2
C2
FC
C2
C2
C2
ENDCHAR
STARTCHAR S
ENCODING 83
SWIDTH 888 0
DWIDTH 8 0
BBX 7 9 0 0
BITMAP
7E
C2
C0
C0
FE
06
06
86
FC
ENDCHAR
STARTCHAR T
ENCODING 84
SWIDTH 1000 0
DWIDTH 9 0
BBX 8 9 0 0
BITMAP
FF
18
18
18
18
18
18
18
18
ENDCHAR
STARTCHAR U
ENCODING 85
SWIDTH 888 0
DWIDTH 8 0
BBX 7 9 0 0
BITMAP
86
86
86
86
86
86
86
86
7E
ENDCHAR
STARTCHAR V
ENCODING 86
SWIDTH 1000 0
DWIDTH 9 0
BBX 8 9 0 0
BITMAP
C1
C1
C1
C1
C2
C4
C8
D0
E0
ENDCHAR
STARTCHAR W
ENCODING 87
SWIDTH 1222 0
DWIDTH 11 0
BBX 10 9 0 0
BITMAP
C040
C440
C440
C440
C440
C440
C440
C440
7B80
ENDCHAR
STARTCHAR X
ENCODING 88
SWIDTH 888 0
DWIDTH 8 0
BBX 7 9 0 0
BITMAP
C2
C2
C2
64
38
64
C2
C2
C2
ENDCHAR
STARTCHAR Y
ENCODING 89
SWIDTH 1000 0
DWIDTH 9 0
BBX 8 9 0 0
BITMAP
C1
C1
C1
62
34
18
18
18
18
ENDCHAR
STARTCHAR Z
ENCODING 90
SWIDTH 888 0
DWIDTH 8 0
BBX 7 9 0 0
BITMAP
FE
86
06
06
7C
C0
C0
C2
FE
ENDCHAR
STARTCHAR bracketleft
ENCODING 91
SWIDTH 555 0
DWIDTH 5 0
BBX 4 13 0 -2
BITMAP
F0
C0
C0
C0
C0
C0
C0
C0
C0
C0
C0
C0
F0
ENDCHAR
STARTCHAR backslash
ENCODING 92
SWIDTH 555 0
DWIDTH 5 0
BBX 4 9 0 0
BITMAP
C0
C0
C0
60
60
60
30
30
30
ENDCHAR
STARTCHAR bracketright
ENCODING 93
SWIDTH 555 0
DWIDTH 5 0
BBX 4 13 0 -2
BITMAP
F0
30
30
30
30
30
30
30
30
30
30
30
F0
ENDCHAR
STARTCHAR asciicircum
ENCODING 94
SWIDTH 777 0
DWIDTH 7 0
BBX 6 3 0 6
BITMAP
3C
4C
8C
ENDCHAR
STARTCHAR underscore
ENCODING 95
SWIDTH 1222 0
DWIDTH 11 0
BBX 10 1 0 -1
BITMAP
FFC0
ENDCHAR
STARTCHAR grave
ENCODING 96
SWIDTH 444 0
DWIDTH 4 0
BBX 3 3 0 6
BITMAP
C0
C0
E0
ENDCHAR
STARTCHAR a
ENCODING 97
SWIDTH 777 0
DWIDTH 7 0
BBX 6 7 0 0
BITMAP
7C
0C
FC
8C
8C
8C
FC
ENDCHAR
STARTCHAR b
ENCODING 98
SWIDTH 777 0
DWIDTH 7 0
BBX 6 9 0 0
BITMAP
C0
C0
FC
C4
C4
C4
C4
C4
FC
ENDCHAR
STARTCHAR c
ENCODING 99
SWIDTH 777 0
DWIDTH 7 0
BBX 6 7 0 0
BITMAP
F8
C0
C0
C0
C0
C4
FC
ENDCHAR
STARTCHAR d
ENCODING 100
SWIDTH 777 0
DWIDTH 7 0
BBX 6 9 0 0
BITMAP
0C
0C
FC
8C
8C
8C
8C
8C
FC
ENDCHAR
STARTCHAR e
ENCODING 101
SWIDTH 777 0
DWIDTH 7 0
BBX 6 7 0 0
BITMAP
FC
C4
C4
FC
C0
C4
FC
ENDCHAR
STARTCHAR f
ENCODING 102
SWIDTH 666 0
DWIDTH 6 0
BBX 5 9 0 0
BITMAP
F8
C8
C0
C0
F0
C0
C0
C0
C0
ENDCHAR
STARTCHAR g
ENCODING 103
SWIDTH 777 0
DWIDTH 7 0
BBX 6 9 0 -2
BITMAP
FC
8C
8C
8C
8C
8C
FC
0C
7C
ENDCHAR
STARTCHAR h
ENCODING 104
SWIDTH 777 0
DWIDTH 7 0
BBX 6 9 0 0
BITMAP
C0
C0
FC
C4
C4
C4
C4
C4
C4
ENDCHAR
STARTCHAR i
ENCODING 105
SWIDTH 333 0
DWIDTH 3 0
BBX 2 9 0 0
BITMAP
C0
00
C0
C0
C0
C0
C0
C0
C0
ENDCHAR
STARTCHAR j
ENCODING 106
SWIDTH 666 0
DWIDTH 6 0
BBX 5 11 0 -2
BITMAP
18
00
18
18
18
18
18
18
18
98
F8
ENDCHAR
STARTCHAR k
ENCODING 107
SWIDTH 777 0
DWIDTH 7 0
BBX 6 9 0 0
BITMAP
C0
C0
C4
C4
F8
C4
C4
C4
C4
ENDCHAR
STARTCHAR l
ENCODING 108
SWIDTH 555 0
DWIDTH 5 0
BBX 4 9 0 0
BITMAP
C0
C0
C0
C0
C0
C0
C0
C0
F0
ENDCHAR
STARTCHAR m
ENCODING 109
SWIDTH 1222 0
DWIDTH 11 0
BBX 10 7 0 0
BITMAP
FBC0
C440
C440
C440
C440
C440
C040
ENDCHAR
STARTCHAR n
ENCODING 110
SWIDTH 777 0
DWIDTH 7 0
BBX 6 7 0 0
BITMAP
FC
C4
C4
C4
C4
C4
C4
ENDCHAR
STARTCHAR o
ENCODING 111
SWIDTH 777 0
DWIDTH 7 0
BBX 6 7 0 0
BITMAP
FC
C4
C4
C4
C4
C4
FC
ENDCHAR
STARTCHAR p
ENCODING 112
SWIDTH 777 0
DWIDTH 7 0
BBX 6 9 0 -2
BITMAP
FC
C4
C4
C4
C4
C4
FC
C0
C0
ENDCHAR
STARTCHAR q
ENCODING 113
SWIDTH 777 0
DWIDTH 7 0
BBX 6 9 0 -2
BITMAP
FC
8C
8C
8C
8C
8C
FC
0C
0C
ENDCHAR
STARTCHAR r
ENCODING 114
SWIDTH 777 0
DWIDTH 7 0
BBX 6 7 0 0
BITMAP
FC
C4
C0
C0
C0
C0
C0
ENDCHAR
STARTCHAR s
ENCODING 115
SWIDTH 777 0
DWIDTH 7 0
BBX 6 7 0 0
BITMAP
FC
C4
C0
FC
0C
8C
FC
ENDCHAR
STARTCHAR t
ENCODING 116
SWIDTH 666 0
DWIDTH 6 0
BBX 5 9 0 0
BITMAP
C0
C0
F0
C0
C0
C0
C0
C8
F8
ENDCHAR
STARTCHAR u
ENCODING 117
SWIDTH 777 0
DWIDTH 7 0
BBX 6 7 0 0
BITMAP
8C
8C
8C
8C
8C
8C
FC
ENDCHAR
STARTCHAR v
ENCODING 118
SWIDTH 777 0
DWIDTH 7 0
BBX 6 7 0 0
BITMAP
C4
C4
C4
C4
C8
D0
E0
ENDCHAR
STARTCHAR w
ENCODING 119
SWIDTH 1222 0
DWIDTH 11 0
BBX 10 7 0 0
BITMAP
C040
C440
C440
C440
C440
C440
FBC0
ENDCHAR
STARTCHAR x
ENCODING 120
SWIDTH 777 0
DWIDTH 7 0
BBX 6 7 0 0
BITMAP
C4
C4
C4
78
C4
C4
C4
ENDCHAR
STARTCHAR y
ENCODING 121
SWIDTH 777 0
DWIDTH 7 0
BBX 6 9 0 -2
BITMAP
8C
8C
8C
8C
8C
8C
FC
0C
7C
ENDCHAR
STARTCHAR z
ENCODING 122
SWIDTH 777 0
DWIDTH 7 0
BBX 6 7 0 0
BITMAP
FC
8C
0C
FC
C0
C4
FC
ENDCHAR
STARTCHAR braceleft
ENCODING 123
SWIDTH 666 0
DWIDTH 6 0
BBX 5 13 0 -2
BITMAP
78
60
60
60
60
60
C0
60
60
60
60
60
78
ENDCHAR
STARTCHAR bar
ENCODING 124
SWIDTH 333 0
DWIDTH 3 0
BBX 2 11 0 -2
BITMAP
C0
C0
C0
C0
C0
C0
C0
C0
C0
C0
C0
ENDCHAR
STARTCHAR braceright
ENCODING 125
SWIDTH 666 0
DWIDTH 6 0
BBX 5 13 0 -2
BITMAP
F0
30
30
30
30
30
18
30
30
30
30
30
F0
ENDCHAR
STARTCHAR asciitilde
ENCODING 126
SWIDTH 888 0
DWIDTH 8 0
BBX 7 3 0 6
BITMAP
E6
D6
CE
ENDCHAR
STARTCHAR exclamdown
ENCODING 161
SWIDTH 333 0
DWIDTH 3 0
BBX 2 9 0 0
BITMAP
C0
C0
00
C0
C0
C0
C0
C0
C0
ENDCHAR
STARTCHAR questiondown
ENCODING 191
SWIDTH 777 0
DWIDTH 7 0
BBX 6 9 0 0
BITMAP
30
30
00
30
F0
C0
C0
C4
FC
ENDCHAR
STARTCHAR Agrave
ENCODING 192
SWIDTH 888 0
DWIDTH 8 0
BBX 7 13 0 0
BITMAP
18
18
1C
00
3E
62
C2
C2
C2
FE
C2
C2
C2
ENDCHAR
STARTCHAR Aacute
ENCODING 193
SWIDTH 888 0
DWIDTH 8 0
BBX 7 13 0 0
BITMAP
18
18
38
00
3E
62
C2
C2
C2
FE
C2
C2
C2
ENDCHAR
STARTCHAR Acircumflex
ENCODING 194
SWIDTH 888 0
DWIDTH 8 0
BBX 7 12 0 0
BITMAP
1C
2C
00
3E
62
C2
C2
C2
FE
C2
C2
C2
ENDCHAR
STARTCHAR Atilde
ENCODING 195
SWIDTH 888 0
DWIDTH 8 0
BBX 7 12 0 0
BITMAP
74
6C
00
3E
62
C2
C2
C2
FE
C2
C2
C2
ENDCHAR
STARTCHAR Adieresis
ENCODING 196
SWIDTH 888 0
DWIDTH 8 0
BBX 7 12 0 0
BITMAP
C2
C2
00
3E
62
C2
C2
C2
FE
C2
C2
C2
ENDCHAR
STARTCHAR Aring
ENCODING 197
SWIDTH 888 0
DWIDTH 8 0
BBX 7 12 0 0
BITMAP
3C
34
3C
3E
62
C2
C2
C2
FE
C2
C2
C2
ENDCHAR
STARTCHAR AE
ENCODING 198
SWIDTH 1333 0
DWIDTH 12 0
BBX 11 9 0 0
BITMAP
3FE0
6400
C400
C400
C780
FC00
C400
C400
C7E0
ENDCHAR
STARTCHAR Ccedilla
ENCODING 199
SWIDTH 1000 0
DWIDTH 9 0
BBX 8 11 0 -2
BITMAP
7E
C2
C0
C0
C0
C0
C0
C1
FF
18
38
ENDCHAR
STARTCHAR Egrave
ENCODING 200
SWIDTH 888 0
DWIDTH 8 0
BBX 7 13 0 0
BITMAP
30
30
38
00
FE
C0
C0
C0
F8
C0
C0
C0
FE
ENDCHAR
STARTCHAR Eacute
ENCODING 201
SWIDTH 888 0
DWIDTH 8 0
BBX 7 13 0 0
BITMAP
18
18
38
00
FE
C0
C0
C0
F8
C0
C0
C0
FE
ENDCHAR
STARTCHAR Ecircumflex
ENCODING 202
SWIDTH 888 0
DWIDTH 8 0
BBX 7 12 0 0
BITMAP
18
2C
00
FE
C0
C0
C0
F8
C0
C0
C0
FE
ENDCHAR
STARTCHAR Edieresis
ENCODING 203
SWIDTH 888 0
DWIDTH 8 0
BBX 7 12 0 0
BITMAP
C2
C2
00
FE
C0
C0
C0
F8
C0
C0
C0
FE
ENDCHAR
STARTCHAR Igrave
ENCODING 204
SWIDTH 555 0
DWIDTH 5 0
BBX 4 13 0 0
BITMAP
60
60
70
00
F0
60
60
60
60
60
60
60
F0
ENDCHAR
STARTCHAR Iacute
ENCODING 205
SWIDTH 555 0
DWIDTH 5 0
BBX 4 13 0 0
BITMAP
60
60
E0
00
F0
60
60
60
60
60
60
60
F0
ENDCHAR
STARTCHAR Icircumflex
ENCODING 206
SWIDTH 555 0
DWIDTH 5 0
BBX 4 12 0 0
BITMAP
70
B0
00
F0
60
60
60
60
60
60
60
F0
ENDCHAR
STARTCHAR Idieresis
ENCODING 207
SWIDTH 555 0
DWIDTH 5 0
BBX 4 12 0 0
BITMAP
D0
D0
00
F0
60
60
60
60
60
60
60
F0
ENDCHAR
STARTCHAR Eth
ENCODING 208
SWIDTH 1000 0
DWIDTH 9 0
BBX 8 9 0 0
BITMAP
7C
62
61
61
FD
61
61
61
7E
ENDCHAR
STARTCHAR Ntilde
ENCODING 209
SWIDTH 888 0
DWIDTH 8 0
BBX 7 12 0 0
BITMAP
74
6C
00
FC
C2
C2
C2
C2
C2
C2
C2
C2
ENDCHAR
STARTCHAR Ograve
ENCODING 210
SWIDTH 1000 0
DWIDTH 9 0
BBX 8 13 0 0
BITMAP
18
18
1C
00
7F
C1
C1
C1
C1
C1
C1
C1
FE
ENDCHAR
STARTCHAR Oacute
ENCODING 211
SWIDTH 1000 0
DWIDTH 9 0
BBX 8 13 0 0
BITMAP
18
18
38
00
7F
C1
C1
C1
C1
C1
C1
C1
FE
ENDCHAR
STARTCHAR Ocircumflex
ENCODING 212
SWIDTH 1000 0
DWIDTH 9 0
BBX 8 12 0 0
BITMAP
1C
2C
00
7F
C1
C1
C1
C1
C1
C1
C1
FE
ENDCHAR
STARTCHAR Otilde
ENCODING 213
SWIDTH 1000 0
DWIDTH 9 0
BBX 8 12 0 0
BITMAP
74
6C
00
7F
C1
C1
C1
C1
C1
C1
C1
FE
ENDCHAR
STARTCHAR Odieresis
ENCODING 214
SWIDTH 1000 0
DWIDTH 9 0
BBX 8 12 0 0
BITMAP
C1
C1
00
7F
C1
C1
C1
C1
C1
C1
C1
FE
ENDCHAR
STARTCHAR Ugrave
ENCODING 217
SWIDTH 888 0
DWIDTH 8 0
BBX 7 13 0 0
BITMAP
30
30
38
00
86
86
86
86
86
86
86
86
7E
ENDCHAR
STARTCHAR Uacute
ENCODING 218
SWIDTH 888 0
DWIDTH 8 0
BBX 7 13 0 0
BITMAP
18
18
38
00
86
86
86
86
86
86
86
86
7E
ENDCHAR
STARTCHAR Ucircumflex
ENCODING 219
SWIDTH 888 0
DWIDTH 8 0
BBX 7 12 0 0
BITMAP
1C
2C
00
86
86
86
86
86
86
86
86
7E
ENDCHAR
STARTCHAR Udieresis
ENCODING 220
SWIDTH 888 0
DWIDTH 8 0
BBX 7 12 0 0
BITMAP
86
86
00
86
86
86
86
86
86
86
86
7E
ENDCHAR
STARTCHAR Yacute
ENCODING 221
SWIDTH 1000 0
DWIDTH 9 0
BBX 8 13 0 0
BITMAP
0C
0C
1C
00
C1
C1
C1
62
34
18
18
18
18
ENDCHAR
STARTCHAR Thorn
ENCODING 222
SWIDTH 888 0
DWIDTH 8 0
BBX 7 9 0 0
BITMAP
C0
FC
C2
C2
C2
C2
C2
FC
C0
ENDCHAR
STARTCHAR germandbls
ENCODING 223
SWIDTH 888 0
DWIDTH 8 0
BBX 7 9 0 0
BITMAP
7C
C4
C4
DC
C2
C2
C2
C2
DE
ENDCHAR
STARTCHAR agrave
ENCODING 224
SWIDTH 777 0
DWIDTH 7 0
BBX 6 11 0 0
BITMAP
30
30
38
00
7C
0C
FC
8C
8C
8C
FC
ENDCHAR
STARTCHAR aacute
ENCODING 225
SWIDTH 777 0
DWIDTH 7 0
BBX 6 11 0 0
BITMAP
30
30
70
00
7C
0C
FC
8C
8C
8C
FC
ENDCHAR
STARTCHAR acircumflex
ENCODING 226
SWIDTH 777 0
DWIDTH 7 0
BBX 6 10 0 0
BITMAP
38
58
00
7C
0C
FC
8C
8C
8C
FC
ENDCHAR
STARTCHAR atilde
ENCODING 227
SWIDTH 777 0
DWIDTH 7 0
BBX 6 10 0 0
BITMAP
E8
D8
00
7C
0C
FC
8C
8C
8C
FC
ENDCHAR
STARTCHAR adieresis
ENCODING 228
SWIDTH 777 0
DWIDTH 7 0
BBX 6 10 0 0
BITMAP
8C
8C
00
7C
0C
FC
8C
8C
8C
FC
ENDCHAR
STARTCHAR aring
ENCODING 229
SWIDTH 777 0
DWIDTH 7 0
BBX 6 10 0 0
BITMAP
78
68
78
7C
0C
FC
8C
8C
8C
FC
ENDCHAR
STARTCHAR ae
ENCODING 230
SWIDTH 1222 0
DWIDTH 11 0
BBX 10 7 0 0
BITMAP
7FC0
0C40
FC40
8FC0
8C00
8C40
FFC0
ENDCHAR
STARTCHAR ccedilla
ENCODING 231
SWIDTH 777 0
DWIDTH 7 0
BBX 6 9 0 -2
BITMAP
F8
C0
C0
C0
C0
C4
FC
30
70
ENDCHAR
STARTCHAR egrave
ENCODING 232
SWIDTH 777 0
DWIDTH 7 0
BBX 6 11 0 0
BITMAP
60
60
70
00
FC
C4
C4
FC
C0
C4
FC
ENDCHAR
STARTCHAR eacute
ENCODING 233
SWIDTH 777 0
DWIDTH 7 0
BBX 6 11 0 0
BITMAP
18
18
38
00
FC
C4
C4
FC
C0
C4
FC
ENDCHAR
STARTCHAR ecircumflex
ENCODING 234
SWIDTH 777 0
DWIDTH 7 0
BBX 6 10 0 0
BITMAP
38
58
00
FC
C4
C4
FC
C0
C4
FC
ENDCHAR
STARTCHAR edieresis
ENCODING 235
SWIDTH 777 0
DWIDTH 7 0
BBX 6 10 0 0
BITMAP
C4
C4
00
FC
C4
C4
FC
C0
C4
FC
ENDCHAR
STARTCHAR igrave
ENCODING 236
SWIDTH 444 0
DWIDTH 4 0
BBX 3 11 0 0
BITMAP
C0
C0
E0
00
C0
C0
C0
C0
C0
C0
C0
ENDCHAR
STARTCHAR iacute
ENCODING 237
SWIDTH 444 0
DWIDTH 4 0
BBX 3 11 0 0
BITMAP
60
60
E0
00
60
60
60
60
60
60
60
ENDCHAR
STARTCHAR icircumflex
ENCODING 238
SWIDTH 555 0
DWIDTH 5 0
BBX 4 10 0 0
BITMAP
70
B0
00
60
60
60
60
60
60
60
ENDCHAR
STARTCHAR idieresis
ENCODING 239
SWIDTH 555 0
DWIDTH 5 0
BBX 4 10 0 0
BITMAP
D0
D0
00
60
60
60
60
60
60
60
ENDCHAR
STARTCHAR eth
ENCODING 240
SWIDTH 888 0
DWIDTH 8 0
BBX 7 9 0 0
BITMAP
1C
0E
FC
8C
8C
8C
8C
8C
FC
ENDCHAR
STARTCHAR ntilde
ENCODING 241
SWIDTH 777 0
DWIDTH 7 0
BBX 6 10 0 0
BITMAP
E8
D8
00
FC
C4
C4
C4
C4
C4
C4
ENDCHAR
STARTCHAR ograve
ENCODING 242
SWIDTH 777 0
DWIDTH 7 0
BBX 6 11 0 0
BITMAP
30
30
38
00
FC
C4
C4
C4
C4
C4
FC
ENDCHAR
STARTCHAR oacute
ENCODING 243
SWIDTH 777 0
DWIDTH 7 0
BBX 6 11 0 0
BITMAP
30
30
70
00
FC
C4
C4
C4
C4
C4
FC
ENDCHAR
STARTCHAR ocircumflex
ENCODING 244
SWIDTH 777 0
DWIDTH 7 0
BBX 6 10 0 0
BITMAP
38
58
00
FC
C4
C4
C4
C4
C4
FC
ENDCHAR
STARTCHAR otilde
ENCODING 245
SWIDTH 777 0
DWIDTH 7 0
BBX 6 10 0 0
BITMAP
E8
D8
00
FC
C4
C4
C4
C4
C4
FC
ENDCHAR
STARTCHAR odieresis
ENCODING 246
SWIDTH 777 0
DWIDTH 7 0
BBX 6 10 0 0
BITMAP
C4
C4
00
FC
C4
C4
C4
C4
C4
FC
ENDCHAR
STARTCHAR ugrave
ENCODING 249
SWIDTH 777 0
DWIDTH 7 0
BBX 6 11 0 0
BITMAP
60
60
70
00
8C
8C
8C
8C
8C
8C
FC
ENDCHAR
STARTCHAR uacute
ENCODING 250
SWIDTH 777 0
DWIDTH 7 0
BBX 6 11 0 0
BITMAP
30
30
70
00
8C
8C
8C
8C
8C
8C
FC
ENDCHAR
STARTCHAR ucircumflex
ENCODING 251
SWIDTH 777 0
DWIDTH 7 0
BBX 6 10 0 0
BITMAP
38
58
00
8C
8C
8C
8C
8C
8C
FC
ENDCHAR
STARTCHAR udieresis
ENCODING 252
SWIDTH 777 0
DWIDTH 7 0
BBX 6 10 0 0
BITMAP
8C
8C
00
8C
8C
8C
8C
8C
8C
FC
ENDCHAR
STARTCHAR yacute
ENCODING 253
SWIDTH 777 0
DWIDTH 7 0
BBX 6 13 0 -2
BITMAP
30
30
70
00
8C
8C
8C
8C
8C
8C
FC
0C
7C
ENDCHAR
STARTCHAR thorn
ENCODING 254
SWIDTH 777 0
DWIDTH 7 0
BBX 6 11 0 -1
BITMAP
C0
C0
FC
C4
C4
C4
C4
C4
FC
C0
C0
ENDCHAR
STARTCHAR ydieresis
ENCODING 255
SWIDTH 777 0
DWIDTH 7 0
BBX 6 12 0 -2
BITMAP
8C
8C
00
8C
8C
8C
8C
8C
8C
FC
0C
7C
ENDCHAR
STARTCHAR OE
ENCODING 338
SWIDTH 1333 0
DWIDTH 12 0
BBX 11 9 0 0
BITMAP
7FE0
C400
C400
C400
C780
C400
C400
C400
FFE0
ENDCHAR
STARTCHAR oe
ENCODING 339
SWIDTH 1222 0
DWIDTH 11 0
BBX 10 7 0 0
BITMAP
FFC0
C440
C440
C7C0
C400
C440
FFC0
ENDCHAR
STARTCHAR Ydieresis
ENCODING 376
SWIDTH 1000 0
DWIDTH 9 0
BBX 8 12 0 0
BITMAP
C1
C1
00
C1
C1
C1
62
34
18
18
18
18
ENDCHAR
STARTCHAR Ygrave
ENCODING 7922
SWIDTH 1000 0
DWIDTH 9 0
BBX 8 13 0 0
BITMAP
18
18
1C
00
C1
C1
C1
62
34
18
18
18
18
ENDCHAR
STARTCHAR ygrave
ENCODING 7923
SWIDTH 777 0
DWIDTH 7 0
BBX 6 13 0 -2
BITMAP
60
60
70
00
8C
8C
8C
8C
8C
8C
FC
0C
7C
ENDCHAR
STARTCHAR uni220E
ENCODING 8718
SWIDTH 888 0
DWIDTH 8 0
BBX 7 9 0 0
BITMAP
FE
FE
FE
FE
FE
FE
FE
FE
FE
ENDCHAR
STARTCHAR .notdef
ENCODING -1
SWIDTH 111 0
DWIDTH 1 0
BBX 1 1 0 0
BITMAP
00
ENDCHAR
ENDFONT
